<svg xmlns="http://www.w3.org/2000/svg" style="display:none">
<symbol id="seb-point" viewBox="0 0 24 24"><circle cx="12" cy="12" r="5" fill="currentColor" stroke="none"/></symbol>
<symbol id="seb-menu" viewBox="0 0 24 24"><path d="M4 8.5 L20 8.5"/><path d="M4 15.5 L13 15.5"/></symbol>
<symbol id="seb-compose" viewBox="0 0 24 24"><path d="M11 4.5 H7.5 A3 3 0 0 0 4.5 7.5 v9 A3 3 0 0 0 7.5 19.5 h9 a3 3 0 0 0 3-3 V13"/><path d="M17.4 3.6 a2.1 2.1 0 0 1 3 3 L13.6 13.4 l-4.1 1.1 1.1-4.1 Z"/></symbol>
<symbol id="seb-plus" viewBox="0 0 24 24"><path d="M12 5 L12 19"/><path d="M5 12 L19 12"/></symbol>
<symbol id="seb-mic" viewBox="0 0 24 24"><rect x="9" y="3" width="6" height="11.5" rx="3"/><path d="M5 11.5 a7 7 0 0 0 14 0"/><path d="M12 18.5 L12 21"/></symbol>
<symbol id="seb-stop" viewBox="0 0 24 24"><circle cx="12" cy="12" r="9"/><rect x="9" y="9" width="6" height="6" rx="1.2" fill="currentColor" stroke="none"/></symbol>
<symbol id="seb-send" viewBox="0 0 24 24"><path d="M12 19.5 L12 5"/><path d="M6 11 L12 5 L18 11"/></symbol>
<symbol id="seb-arrow-down" viewBox="0 0 24 24"><path d="M12 4.5 L12 19"/><path d="M6 13 L12 19 L18 13"/></symbol>
<symbol id="seb-search" viewBox="0 0 24 24"><circle cx="11" cy="11" r="6.2"/><path d="M15.6 15.6 L20 20"/></symbol>
<symbol id="seb-close" viewBox="0 0 24 24"><path d="M6 6 L18 18"/><path d="M18 6 L6 18"/></symbol>
<symbol id="seb-check" viewBox="0 0 24 24"><path d="M5 12.6 L9.8 17.4 L19 7"/></symbol>
<symbol id="seb-refresh" viewBox="0 0 24 24"><path d="M19.6 12 A7.6 7.6 0 1 1 17.4 6.6"/><path d="M17.4 2.6 V6.7 H21.5"/></symbol>
<symbol id="seb-chat" viewBox="0 0 24 24"><path d="M8 4.5 h8 A3.5 3.5 0 0 1 19.5 8 v4.5 a3.5 3.5 0 0 1 -3.5 3.5 H10.5 L6 19.5 V16 A3.5 3.5 0 0 1 4.5 12.5 V8 A3.5 3.5 0 0 1 8 4.5 Z"/><circle cx="8.6" cy="10.3" r="1.6" fill="currentColor" stroke="none"/><circle cx="12" cy="10.3" r="1.6" fill="currentColor" stroke="none"/><circle cx="15.4" cy="10.3" r="1.6" fill="currentColor" stroke="none"/></symbol>
<symbol id="seb-spark" viewBox="0 0 24 24"><path d="M12 3.5 C12.6 8.4 15.6 11.4 20.5 12 C15.6 12.6 12.6 15.6 12 20.5 C11.4 15.6 8.4 12.6 3.5 12 C8.4 11.4 11.4 8.4 12 3.5 Z"/><circle cx="19" cy="4.6" r="1.4" fill="currentColor" stroke="none"/></symbol>
<symbol id="seb-history" viewBox="0 0 24 24"><circle cx="12" cy="12" r="9"/><path d="M12 7.5 V12 L15.2 14"/></symbol>
<symbol id="seb-user" viewBox="0 0 24 24"><circle cx="12" cy="8.5" r="3.6"/><path d="M5 20 a7 7 0 0 1 14 0"/></symbol>
<symbol id="seb-attach" viewBox="0 0 24 24"><path d="M8.4 11.6 V8 a3.6 3.6 0 0 1 7.2 0 v9 a2.3 2.3 0 0 1 -4.6 0 V9.4"/></symbol>
<symbol id="seb-code" viewBox="0 0 24 24"><path d="M9 7 L4 12 L9 17"/><path d="M15 7 L20 12 L15 17"/></symbol>
<symbol id="seb-table" viewBox="0 0 24 24"><rect x="4" y="5" width="16" height="14" rx="2.5"/><path d="M4 10.2 L20 10.2"/><path d="M11 10.2 L11 19"/></symbol>
<symbol id="seb-copy" viewBox="0 0 24 24"><rect x="8.5" y="8.5" width="11.5" height="11.5" rx="2.5"/><path d="M15.5 4.5 H7.5 A3 3 0 0 0 4.5 7.5 v8"/></symbol>
<symbol id="seb-download" viewBox="0 0 24 24"><path d="M12 4 L12 13"/><path d="M8 9.5 L12 13.5 L16 9.5"/><path d="M4.5 16.5 v.6 A2.9 2.9 0 0 0 7.4 20 h9.2 a2.9 2.9 0 0 0 2.9-2.9 v-.6"/></symbol>
<symbol id="seb-upload" viewBox="0 0 24 24"><path d="M12 13.5 L12 4.5"/><path d="M8 8.5 L12 4.5 L16 8.5"/><path d="M4.5 16.5 v.6 A2.9 2.9 0 0 0 7.4 20 h9.2 a2.9 2.9 0 0 0 2.9-2.9 v-.6"/></symbol>
<symbol id="seb-sliders" viewBox="0 0 24 24"><path d="M4 6.5 L20 6.5"/><path d="M4 12 L20 12"/><path d="M4 17.5 L20 17.5"/><circle cx="15" cy="6.5" r="2.4" fill="currentColor" stroke="none"/><circle cx="8.5" cy="12" r="2.4" fill="currentColor" stroke="none"/><circle cx="16.5" cy="17.5" r="2.4" fill="currentColor" stroke="none"/></symbol>
<symbol id="seb-info" viewBox="0 0 24 24"><circle cx="12" cy="12" r="9"/><path d="M12 11.4 L12 16.4"/><circle cx="12" cy="7.9" r="1.5" fill="currentColor" stroke="none"/></symbol>
<symbol id="seb-warning" viewBox="0 0 24 24"><path d="M12 4.2 L20.8 19.4 H3.2 Z"/><path d="M12 10 L12 13.8"/><circle cx="12" cy="16.6" r="1.4" fill="currentColor" stroke="none"/></symbol>
</svg>